<?xml version="1.0" standalone="no"?>
<!DOCTYPE svg PUBLIC "-//W3C//DTD SVG 20010904//EN"
 "http://www.w3.org/TR/2001/REC-SVG-20010904/DTD/svg10.dtd">
<svg version="1.0" xmlns="http://www.w3.org/2000/svg"
 width="700.000000pt" height="700.000000pt" viewBox="0 0 700.000000 700.000000"
 preserveAspectRatio="xMidYMid meet">
<metadata>
Created by potrace 1.14, written by Peter Selinger 2001-2017
</metadata>
<g transform="translate(0.000000,700.000000) scale(0.100000,-0.100000)"
fill="#000000" stroke="none">
<path d="M3329 5706 c-2 -2 -35 -6 -74 -9 -331 -27 -690 -170 -984 -391 -88
-66 -268 -235 -337 -316 -212 -249 -376 -556 -469 -875 -14 -48 -27 -99 -30
-113 -2 -14 -9 -48 -14 -76 -38 -194 -48 -487 -22 -671 56 -403 230 -762 523
-1079 l27 -30 98 27 c334 94 818 272 1117 411 39 18 105 48 146 67 194 88 552
276 629 331 203 144 428 326 576 466 39 37 138 151 221 254 229 285 304 358
424 413 56 26 78 30 160 31 l95 2 -1 115 c-3 223 -57 340 -172 365 -86 20
-199 -11 -412 -114 l-136 -65 -56 34 c-145 87 -290 92 -471 17 -117 -48 -284
-166 -532 -375 -356 -298 -570 -366 -778 -243 -55 32 -57 33 -57 13 0 -8 -7
-35 -16 -61 -21 -64 -30 -103 -42 -190 -9 -70 0 -146 22 -179 25 -38 66 -54
147 -56 73 -2 130 -17 143 -38 9 -14 -79 -77 -135 -96 -78 -27 -134 -21 -202
19 -164 96 -299 386 -345 736 -14 106 -7 360 12 450 98 463 479 855 1052 1084
92 36 249 87 314 101 30 7 32 9 15 15 -11 4 -49 11 -85 15 -70 7 -345 16 -351
11z m1121 -1424 c0 -5 -46 -57 -143 -161 -80 -85 -173 -123 -284 -116 -60 5
-142 23 -156 35 -8 7 167 130 248 174 88 47 183 74 263 74 39 0 72 -2 72 -6z"/>
<path d="M6279 5406 c-2 -2 -42 -6 -88 -10 -46 -3 -127 -13 -180 -22 -53 -9
-107 -17 -121 -19 -33 -5 -320 -64 -342 -71 -16 -5 -37 -9 -88 -19 -14 -2 -45
-10 -68 -17 -39 -12 -24 -13 145 -13 206 -1 280 -7 381 -32 304 -74 392 -262
261 -552 -28 -60 -138 -235 -180 -286 -168 -203 -311 -348 -542 -553 -78 -69
-349 -283 -473 -372 -581 -422 -1315 -832 -1994 -1113 -75 -31 -138 -56 -365
-142 -105 -40 -328 -112 -540 -175 -39 -12 -302 -78 -335 -84 -14 -3 -61 -12
-105 -21 -188 -38 -356 -54 -535 -50 -203 3 -229 7 -331 46 -260 100 -283 340
-66 704 46 78 128 197 161 234 l21 24 -22 -14 c-77 -52 -425 -382 -527 -500
-238 -276 -348 -487 -342 -657 7 -222 212 -336 601 -336 99 0 285 11 308 19 7
2 30 6 52 9 270 33 787 169 1100 289 22 8 85 32 140 52 112 42 414 160 460
180 17 7 71 29 120 50 50 21 108 45 130 55 22 10 83 37 135 60 244 107 677
318 914 444 45 24 131 69 191 101 124 65 332 181 415 230 307 184 483 294 640
400 232 159 296 203 355 248 5 4 70 52 143 107 155 116 248 190 387 309 55 47
111 95 125 106 75 62 419 415 490 505 205 258 292 440 285 590 -3 73 -22 122
-60 163 -89 94 -242 135 -501 136 -84 0 -153 -2 -155 -3z"/>
<path d="M5704 2933 c-61 -189 -157 -329 -324 -474 -90 -79 -286 -184 -430
-233 -239 -80 -510 -84 -627 -9 -80 51 -104 122 -79 232 l8 34 -33 -20 c-19
-11 -91 -50 -161 -87 -463 -240 -892 -438 -1318 -607 -96 -38 -190 -76 -208
-84 -18 -8 -40 -15 -49 -15 -33 0 9 -28 145 -96 164 -82 209 -102 326 -143 88
-31 282 -85 341 -96 17 -2 39 -7 51 -9 12 -2 45 -7 75 -11 30 -4 65 -9 79 -11
53 -9 358 -11 420 -4 36 5 88 11 115 14 71 8 114 16 160 28 22 5 51 12 65 15
141 25 363 104 520 186 84 44 226 131 240 147 3 3 25 21 50 40 70 52 223 207
278 280 197 261 303 516 356 853 12 82 12 109 0 70z"/>
</g>
</svg>
