<svg data-name="Layer 1" xmlns="http://www.w3.org/2000/svg" viewBox="0 0 1464.3 3444.54"><defs><linearGradient id="a" x1="-352.07" y1="3613.3" x2="1002.96" y2="-296.47" gradientUnits="userSpaceOnUse"><stop offset="0" stop-color="#fbca43"/><stop offset=".02" stop-color="#e6cc52"/><stop offset=".08" stop-color="#c2d06c"/><stop offset=".13" stop-color="#a2d384"/><stop offset=".2" stop-color="#86d598"/><stop offset=".27" stop-color="#70d7a8"/><stop offset=".35" stop-color="#5fd9b4"/><stop offset=".45" stop-color="#54dabd"/><stop offset=".6" stop-color="#4ddbc2"/><stop offset="1" stop-color="#4bdbc3"/></linearGradient></defs><path d="M1464.3 0h-106.19c-3.19 82.86-10.73 152.45-17.87 204.49-19.63 143.08-50.19 255.45-73.21 328.66-21 66.63-36.07 113.9-68 174.73a831.2 831.2 0 0 1-100.92 149.79 567.64 567.64 0 0 1-99.45 95.69c-89.59 67.25-175.9 90.18-217.81 100.88-79.76 20.35-142.7 20.76-185.47 20.76-155.91-.07-263.5-42.81-290.07-53.87C256.22 1000.67 222 986 187.2 951.16c-63.76-63.87-76.55-142.52-79.76-164.2C87.73 654.21 165 551 194.11 512.08 218.9 479 300.44 370 444.47 347c29.91-4.78 104.34-12.54 185.79 21.06 50.8 21 81.65 48.65 119.82 83.57 38.92 35.6 128.18 119 191.83 261.24 9.1 20.33 47.27 108 62.94 231.67 16.46 130-.77 230-13.73 301.85-25.91 143.64-70.43 245.86-128.12 376.06-23.82 53.77-24.41 50.35-142.79 285.41-79.4 157.66-119.1 236.49-136.23 273.5-69 149.11-113.27 267.54-168.34 414.9-56.93 152.32-95.76 268.59-104.12 293.7-48.39 145.41-105.9 332.43-162.39 554.56l105.93-.31c24.19-89 89.75-326.28 165.89-548.29 24.67-71.94 63.71-181 105-291.11 13.88-37 26.85-71.56 44.72-117.15 23.74-60.6 67.79-173 120.77-288.43 44.58-97.12 45.31-87.09 145.3-286.19 61.83-123.12 92.74-184.67 116.55-238.79 50.94-115.81 99.33-225.81 130.27-370.88 17.37-81.46 38.33-179.73 29.78-310-2.61-39.82-20.59-272.11-168.6-479.4A871 871 0 0 0 804.3 360.83c-40.51-34.7-73.67-62.66-126-86.16-22.5-10.09-87.3-36.74-173.79-37-116.28-.4-200.34 47.1-236.46 68.11-154.7 90-252 255.59-265.73 411.8-2.79 31.82-7.41 91.58 17.1 162.3 27.32 78.85 75.39 126.74 97.72 148.49 111.3 108.4 257.08 126.85 353.7 139.08 92 11.65 282.71 35.78 483.71-68.63 129.67-67.36 204.33-157.42 246.65-209.53 124.32-153.09 164-305.66 204.35-460C1432.52 326.08 1461 179.73 1464.3 0Z" style="fill:url(#a)"/></svg>