<svg data-name="Layer 1" xmlns="http://www.w3.org/2000/svg" viewBox="0 0 2746 754.6"><defs><linearGradient id="a" y1="377.3" x2="2746" y2="377.3" gradientUnits="userSpaceOnUse"><stop offset="0" stop-color="#1bccaf"/><stop offset=".27" stop-color="#1dcdb0"/><stop offset=".41" stop-color="#25ceb3"/><stop offset=".52" stop-color="#33d1b7"/><stop offset=".62" stop-color="#46d6be"/><stop offset=".71" stop-color="#5fdbc7"/><stop offset=".79" stop-color="#7ee2d2"/><stop offset=".86" stop-color="#a2eade"/><stop offset=".93" stop-color="#ccf4ed"/><stop offset=".99" stop-color="#fbfefe"/><stop offset="1" stop-color="#fff"/></linearGradient></defs><path d="M2746 610.76v96.87a1745.34 1745.34 0 0 1-233.27 37.77c-70.56 6.56-154.24 14.43-263.82 4.49-116-10.53-184-33.78-207.89-42.48-30.21-11-64.78-23.8-105.67-50.07-79.64-51.16-121.22-113.5-129.49-126.22-47.83-73.51-58.64-142.43-64.23-180.77-7.25-49.7-16-109.88 9.32-180.26 9.6-26.67 29.25-79.08 81.84-119.66 53.59-41.34 110.18-46.32 143-49.2 76-6.7 133.6 15.68 161.61 26.93 34.48 13.86 89.23 36.62 135.19 92.72 17.72 21.63 55.18 68.64 60.61 138.3 4.26 54.78-13.41 96-24.87 122.76-25.72 60-62.82 95.75-98.42 130-59.7 57.48-117.07 87.41-137.26 97.38-17.77 8.78-70.24 33.44-156.43 49.21-127.57 23.34-230.48 9.16-318-3.63-91.88-13.42-173.09-34.88-270.38-60.6-50.65-13.39-70.86-19.92-121.21-32.12 0 0-100.72-24.39-213-42C874.07 501.4 501.56 485.5 0 525.43V266.78c576.39 90.34 854.06 135.37 997.91 159.52 86.95 14.61 142.55 24.53 214.68 40.94 154.68 35.18 190.19 55.77 333.24 84.09 137 27.12 205.35 28.22 246.9 27.1 95.28-2.56 152.94-19.62 191-34.61a478.77 478.77 0 0 0 95.57-50.64c64.51-44.32 98.87-91.67 105.84-101.48 25.77-36.26 43.78-61.6 46.06-100.27 2.58-43.74-16.48-78.59-24-90.78-12.59-20.65-27.2-33.65-37.46-42.73-6.25-5.54-27.38-23.67-60.86-39.11-21-9.69-62.57-28.27-117.59-24.87-23.94 1.49-53.54 3.32-83.39 23.31-41.43 27.76-54.86 71.45-59.22 85.64-6.89 22.4-7.56 41.43-8.38 64.49-.37 10.55-.73 33.92 3.8 66.82 4.8 34.82 10.5 76.2 34.27 123.37a320.68 320.68 0 0 0 71.31 93c41.41 37.24 85.62 57.11 130.71 71.74 70.5 22.88 184.62 46.44 388 30.56A1947.09 1947.09 0 0 0 2746 610.76Z" style="fill:url(#a)"/></svg>