<svg data-name="Layer 1" xmlns="http://www.w3.org/2000/svg" viewBox="0 0 484.25 1835"><defs><linearGradient id="a" x1="253.57" y1="23.03" x2="189.85" y2="1834.94" gradientUnits="userSpaceOnUse"><stop offset="0" stop-color="#fbca43"/><stop offset="1" stop-color="#e092be"/></linearGradient></defs><path d="M377 0h73.81c11.29 45.82 18.16 85.35 22.51 115.83C479.4 158.6 485.58 203.3 484 261.9c-1 36.26-2.08 69.36-13.13 112.23-7.16 27.81-17.18 65.28-45.23 106-27.26 39.58-57.21 61.61-64.23 66.64-34.47 24.68-66 34.14-87 40.24-56 16.26-101.57 13.15-117.75 11.56-24.49-2.39-47.45-4.66-74.25-18.64-9.83-5.13-37.81-20.17-58.7-52.49C-3.47 485.45-.6 442.2.89 423.86 4.68 377 25.58 345 34.73 331.31c10.71-16 32.05-47 73.55-66.64A170.72 170.72 0 0 1 186 248.44c47.14 1.45 80 22.55 103.12 37.38 39 25 62.69 55.35 77.14 74.15a346.9 346.9 0 0 1 22.45 32.81c42.63 71.71 44.76 145.62 45.23 173.35.64 36.64-3.93 65.6-7.25 86-5.3 32.62-14.26 69.15-22.79 103.94-2.91 11.86-5.16 20.68-5.52 22.1-69.59 272.75-91.51 461.7-91.51 461.7-3.67 31.58-15.08 135.11-17.1 269.18-1.32 87.51 2 147.88 2.94 164.72 3.67 63.52 9.79 118.16 15.71 161.24h-71.16c-3.08-22.68-6.84-53.15-10.18-89.24-1.86-20.06-6.89-77.42-8.64-155-3.25-144.17 6.93-263.8 14.85-354.13.32-3.65.48-5.47.71-8 17.07-188 55-325.57 94.21-467.59.53-1.91 8.07-29.23 16.44-66.33 11-48.74 13.49-70.32 14.17-76.53 1.91-17.47 4.16-38.82 2.59-66.64-1.32-23.29-3.32-54.13-18.13-90.65-2.49-6.13-14.32-34.58-39.54-65.44a265.54 265.54 0 0 0-64.06-56.29c-17.93-11.15-29.5-15.16-39.71-17.26a93.35 93.35 0 0 0-37.82-.61c-23.34 4.67-38.29 17.92-47.65 26.42-31.43 28.55-38.68 64.23-40.75 75.19-1.94 10.32-4.44 24.42 0 41.79a75.7 75.7 0 0 0 14.33 29.52c15.61 19.39 36.94 25 48.18 27.89 10.76 2.81 19.08 3.22 32.54 3.88a263.07 263.07 0 0 0 39.89-1.21c12.66-1.18 28-2.67 47.57-7.94a233.76 233.76 0 0 0 40.4-14.85 164.66 164.66 0 0 0 27.8-16.23 175.2 175.2 0 0 0 19.42-16.88c30.42-30.87 46.72-76.05 48.43-80.93 7.45-21.16 10.25-38.19 13.47-57.76a491 491 0 0 0 5.53-52.19c1.41-26.11.47-45.38-1-74.42-.62-12-1.91-36.8-4.66-62.16C402.17 109.75 394.74 61.43 377 0Z" style="fill:url(#a)"/></svg>