<svg data-name="Layer 1" xmlns="http://www.w3.org/2000/svg" viewBox="0 0 2535.39 381.02"><defs><linearGradient id="a" y1="190.51" x2="2535.39" y2="190.51" gradientUnits="userSpaceOnUse"><stop offset=".39" stop-color="#1bccaf"/><stop offset=".55" stop-color="#1dcdb0"/><stop offset=".64" stop-color="#25ceb3"/><stop offset=".71" stop-color="#33d1b7"/><stop offset=".77" stop-color="#46d6be"/><stop offset=".82" stop-color="#5fdbc7"/><stop offset=".87" stop-color="#7ee2d2"/><stop offset=".92" stop-color="#a2eade"/><stop offset=".96" stop-color="#ccf4ed"/><stop offset="1" stop-color="#fbfefe"/><stop offset="1" stop-color="#fff"/></linearGradient></defs><path d="M2535.39 301.07a545.1 545.1 0 0 1-69.32-17.49q-8.52-2.76-17-5.87c4.37-2 7.88-3.68 10.48-5a449.59 449.59 0 0 0 75.84-47.71V113.66a383.23 383.23 0 0 1-70.19 61.9 400.63 400.63 0 0 1-79.95 42.36c-7.38 2.9-15.64 5.89-24.94 8.8-1.2-1-2.4-2.09-3.6-3.17a268.33 268.33 0 0 1-59.66-77.79c-19.89-39.46-24.66-74.09-28.67-103.22A345.31 345.31 0 0 1 2265.05 0h-88.48c.84 20.17 3.56 38.86 6.07 56.05 4.68 32.08 13.72 89.75 53.74 151.25a317.53 317.53 0 0 0 28.74 37.35c-12.3 1.08-25.5 1.85-39.72 2.24-34.77.93-92 0-206.58-22.69-119.68-23.69-149.4-40.91-278.81-70.35-60.36-13.73-106.87-22-179.62-34.25C1447.63 100.67 1236.6 66.41 813.85 0h-88.39L0 10.24V190.5l725.46 12c233.37-38.57 516.89-53.8 831.28-4.4 93.94 14.8 178.26 35.21 178.26 35.21 42.13 10.2 59 15.67 101.41 26.87 81.41 21.51 149.35 39.47 226.23 50.7 73.26 10.7 159.36 22.56 266.1 3q6.95-1.28 13.54-2.63l2.49 1.61c34.21 22 63.14 32.7 88.41 41.9 14.45 5.26 48.11 16.86 102.26 26.22Z" style="fill:url(#a)"/></svg>