<svg id="Layer_1" data-name="Layer 1" xmlns="http://www.w3.org/2000/svg" viewBox="0 0 1372.2 997.32"><defs><style>.cls-1{fill:#5bbdaf;}.cls-2{fill:#4c3d90;}.cls-3{fill:#fff;}</style></defs><path class="cls-1" d="M625,933.07A94.27,94.27,0,0,1,580.52,907a7.79,7.79,0,0,0-1-1.71c-16-15.72-35-24.74-57.53-26.35-16.92-1.2-32.86,3.88-49,7.48-59.93,13.36-119.8,27-179.69,40.55Q210,945.74,126.7,964.56c-19.45,4.43-38.79,9.32-58.91,4.49C32.37,959.31,10.08,936.82,1.7,900.9A70,70,0,0,1,0,885.06q0-272.91,0-545.82c0-40.11,27.86-77.84,73.79-87.35,80.16-16.61,160.05-34.53,240-52q111-24.19,221.94-48.53,127-27.7,254.12-55.28Q915.47,68.75,1041.05,41.3q89.31-19.48,178.66-38.88c33.65-7.24,62.46,1.82,86.28,26.7,15.69,18.59,22.2,39.95,22.16,64.33q-.47,267.66-.19,535.34a121.38,121.38,0,0,1-.86,15.91c-4.49,34.44-30.85,64.53-64.78,72.23-42.8,9.71-85.74,18.76-128.64,28q-65.52,14.13-131.09,28.08c-29.94,6.39-59.92,12.61-89.85,19.09-37.65,8.14-75.2,16.8-112.93,24.59-29,6-50.39,21.47-64.08,47.73-4.05,7.77-8.37,15.41-12.64,23.08-17.62,31.7-44.58,47.43-80.85,47.5C636.38,935,630.8,933.31,625,933.07ZM757.18,418.94c3.25,10.44,6,19.61,9,28.67q10.9,32.94,22,65.78c2.76,8.13,2.79,7.88-4.09,12-23.24,14.05-43.39,31.38-56.16,55.87-16.11,30.91-19.26,63-6.66,95.91,3.72,9.71,9.55,18.23,18.41,24.08,12,8,25.2,10.72,39.61,8.82,20-2.63,37-11.21,50.66-25.84,17.55-18.8,25.22-42,26.9-67.14a197,197,0,0,0-6.68-65c-1.3-4.77-.29-6.35,4.59-7.1A265.42,265.42,0,0,0,897,534.78c4.63-1.52,6.45-.47,8,4,7.09,21.17,17.73,40,35.58,54.27a80.12,80.12,0,0,0,43.64,17.73c28.22,2.53,53.53-6.81,77.48-20.35,28.29-16,52.67-37.13,75.83-59.69,6.78-6.61,13.09-13.71,19.73-20.46,9.19-9.36,16.77-20.12,25.85-29.54,7.35-7.63,14-16.17,23.18-21.76,11.18-6.78,15.3-21.54,8.75-32.4-7-11.54-22.47-15.41-33.72-8.17-11.67,7.5-21.25,17.47-30.56,27.56-10.52,11.39-20,23.77-30.51,35.14a427.59,427.59,0,0,1-60,54.12c-16.54,12.13-34.13,22.39-54.35,27.26-13.21,3.19-25.8,1.86-36.56-6.92-11.15-9.11-16.78-21.84-21.3-35.16-1.25-3.68-.59-5.66,3.18-7.19A107.28,107.28,0,0,0,963,506.94a244.84,244.84,0,0,0,48.9-35.36c7.51-7.08,13.41-15.5,19.65-23.63,10.84-14.12,20.28-28.82,23.9-46.76,3.77-18.74-3.46-38.59-19.33-49s-33.35-11.38-51.17-7.49c-32.47,7.09-55.7,26.83-71.77,55.21-11.7,20.65-16.3,43.37-17.28,66.93-.26,6.27,1.23,14.17-2,18.3s-11.34,4.17-17.23,6.18c-13.35,4.54-27.56,5.37-40.81,10.12-2.15.77-2.4-.64-3-2.18-15.28-43-30-86.24-40.62-130.7-3.5-14.61-7.14-29.3-7.11-44.39,0-7.71-4.93-17.06-13.56-20.73-9-3.82-18.28-1.81-25.21,4.49-6,5.47-7.25,12.63-8.85,19.93-5.51,25.11-14,49.25-23.86,72.95-12.79,30.62-28.27,59.84-45.49,88.12-17.7,29.08-37.5,56.68-61.21,81.23-11.11,11.5-22.77,22.62-37.47,29.52-12.89,6.06-13.51,5.32-14.46-8.77-1.46-21.8,2.89-43,7.63-64.08,6.86-30.52,16.23-60.32,26.37-89.89a23.46,23.46,0,0,0-14.74-30.23c-12.4-4-24.91,2.5-29.43,15.33-8,22.73-15.27,45.71-21.44,69-7.6,28.77-14.06,57.75-15.33,87.62-.66,15.52.52,30.82,7.07,45.27a45.89,45.89,0,0,0,49,26.5c16.27-2.47,30.39-9.54,43.54-18.86,26.12-18.5,46.78-42.42,66.12-67.58,17.54-22.82,32.87-47.1,47.07-72.08,9-15.86,17.67-31.93,25-48.66C749.4,435.49,753.08,427.8,757.18,418.94ZM593,785.16a251.17,251.17,0,0,0,45.26-3.23c26.35-4.21,51.5-11.87,74-26.79C724.49,747,728,733,720.56,721.32c-7.25-11.38-21.34-13.91-33.73-5.93a115.77,115.77,0,0,1-23.67,11.68c-27.25,9.75-55.49,11.57-84.12,10.72-17.43-.52-33.79-4.28-49.06-13.06-23.12-13.3-42.42-31.11-60-50.74C430.87,630.5,400,581.37,372.36,530.08c-2-3.74-.95-5.05,2.33-6.67a254.91,254.91,0,0,0,55-36c30.22-26.26,53-57.1,57.75-98.28,2.27-19.52.23-38.61-9.09-56.3-13.78-26.16-37.13-39.14-64.73-45.7-22.52-5.36-45.4-6-68.44-4.29a417.6,417.6,0,0,0-70.32,11.08c-10,2.47-15.89,9.08-17.72,18.86-4.88,26.12-9.41,52.3-14,78.47Q230.4,463.59,217.74,536,205.94,603,194,669.93c-7.23,40.72-14.55,81.42-21.63,122.17-1.25,7.17-3.68,14.29-3.06,21.65,1,12.23,10.75,21.82,22.69,21.78,12.43,0,21.66-7.7,24-21.62q4.09-24.07,8.32-48.11,11.85-67,23.77-133.93,6.61-37.29,13.13-74.6c.46-2.64,1.24-4.3,4.67-4.38A212.38,212.38,0,0,0,321.34,544c3.92-1.16,5.5-.2,7.27,3.25a819.45,819.45,0,0,0,45.05,77.14c28.17,42.84,58.71,83.73,98.25,117,19.11,16.09,39.87,29.43,63.81,37.34C554.36,784.86,573.67,784.89,593,785.16ZM566.87,356.79c.3,8.65,4.37,16.33,13.28,20.62,9.32,4.48,18.12,2.76,25.92-3.94a230.44,230.44,0,0,0,22.8-23c9.57-10.9,18.36-22.4,25-35.36a23.78,23.78,0,0,0-9.19-31.61c-10.67-6.08-24.81-2.94-31,7.92-10.32,18.21-24.15,33.31-39.34,47.4C569.48,343.32,567.1,349,566.87,356.79Z"/><path class="cls-2" d="M625,933.07c5.79.24,11.37,1.94,17.23,1.93,36.27-.07,63.23-15.8,80.85-47.5,4.27-7.67,8.59-15.31,12.64-23.08,13.69-26.26,35.08-41.74,64.08-47.73,37.73-7.79,75.28-16.45,112.93-24.59,29.93-6.48,59.91-12.7,89.85-19.09q65.55-14,131.09-28.08c42.9-9.24,85.84-18.29,128.64-28,33.93-7.7,60.29-37.79,64.78-72.23a121.38,121.38,0,0,0,.86-15.91q0-267.67.19-535.34c0-24.38-6.47-45.74-22.16-64.33,33.41,9,54.4,30.52,63.84,63.57,1.88,6.6,2.26,13.41,2.26,20.27q0,272.39.11,544.77c.08,44.14-31.39,79.54-72.55,87.42-31.84,6.09-63.41,13.58-95.11,20.38-29,6.22-58.06,12.31-87.07,18.55-28.35,6.11-56.66,12.39-85,18.48-32.06,6.89-64.16,13.56-96.21,20.5-34.9,7.55-69.81,15.06-104.59,23.13-11.36,2.63-21.07,9.12-30.06,16.62-15,12.5-23,29.69-31.7,46.43-9.09,17.57-21.39,32.18-39,41.58A87.7,87.7,0,0,1,697.33,961C668.53,963.65,644.77,953.63,625,933.07Z"/><path class="cls-2" d="M67.79,969.05c20.12,4.83,39.46-.06,58.91-4.49q83.27-19,166.6-37.63C353.19,913.4,413.06,899.74,473,886.38c16.13-3.6,32.07-8.68,49-7.48,22.51,1.61,41.54,10.63,57.53,26.35a7.79,7.79,0,0,1,1,1.71c-25.82-6-50.07,2.89-74.56,8.34Q375.4,944.36,245,974c-31.42,7.09-62.72,14.78-94.29,21.15C118.59,1001.66,90.45,993.52,67.79,969.05Z"/><path class="cls-3" d="M757.18,418.94c-4.1,8.86-7.78,16.55-11.22,24.34-7.36,16.73-16,32.8-25,48.66-14.2,25-29.53,49.26-47.07,72.08-19.34,25.16-40,49.08-66.12,67.58-13.15,9.32-27.27,16.39-43.54,18.86a45.89,45.89,0,0,1-49-26.5c-6.55-14.45-7.73-29.75-7.07-45.27,1.27-29.87,7.73-58.85,15.33-87.62,6.17-23.31,13.41-46.29,21.44-69,4.52-12.83,17-19.35,29.43-15.33A23.46,23.46,0,0,1,589.05,437c-10.14,29.57-19.51,59.37-26.37,89.89-4.74,21.08-9.09,42.28-7.63,64.08,1,14.09,1.57,14.83,14.46,8.77,14.7-6.9,26.36-18,37.47-29.52,23.71-24.55,43.51-52.15,61.21-81.23,17.22-28.28,32.7-57.5,45.49-88.12,9.9-23.7,18.35-47.84,23.86-72.95,1.6-7.3,2.85-14.46,8.85-19.93,6.93-6.3,16.22-8.31,25.21-4.49,8.63,3.67,13.58,13,13.56,20.73,0,15.09,3.61,29.78,7.11,44.39,10.66,44.46,25.34,87.67,40.62,130.7.55,1.54.8,3,3,2.18,13.25-4.75,27.46-5.58,40.81-10.12,5.89-2,14.06-2.09,17.23-6.18s1.72-12,2-18.3c1-23.56,5.58-46.28,17.28-66.93,16.07-28.38,39.3-48.12,71.77-55.21,17.82-3.89,35.36-2.87,51.17,7.49s23.1,30.25,19.33,49c-3.62,17.94-13.06,32.64-23.9,46.76-6.24,8.13-12.14,16.55-19.65,23.63A244.84,244.84,0,0,1,963,506.94a107.28,107.28,0,0,1-11.84,6.26c-3.77,1.53-4.43,3.51-3.18,7.19,4.52,13.32,10.15,26.05,21.3,35.16,10.76,8.78,23.35,10.11,36.56,6.92,20.22-4.87,37.81-15.13,54.35-27.26a427.59,427.59,0,0,0,60-54.12c10.54-11.37,20-23.75,30.51-35.14,9.31-10.09,18.89-20.06,30.56-27.56,11.25-7.24,26.76-3.37,33.72,8.17,6.55,10.86,2.43,25.62-8.75,32.4-9.22,5.59-15.83,14.13-23.18,21.76-9.08,9.42-16.66,20.18-25.85,29.54-6.64,6.75-13,13.85-19.73,20.46-23.16,22.56-47.54,43.7-75.83,59.69-24,13.54-49.26,22.88-77.48,20.35A80.12,80.12,0,0,1,940.52,593c-17.85-14.23-28.49-33.1-35.58-54.27-1.5-4.45-3.32-5.5-8-4a265.42,265.42,0,0,1-42.23,10.29c-4.88.75-5.89,2.33-4.59,7.1a197,197,0,0,1,6.68,65c-1.68,25.13-9.35,48.34-26.9,67.14-13.66,14.63-30.62,23.21-50.66,25.84-14.41,1.9-27.58-.87-39.61-8.82-8.86-5.85-14.69-14.37-18.41-24.08-12.6-32.94-9.45-65,6.66-95.91,12.77-24.49,32.92-41.82,56.16-55.87,6.88-4.16,6.85-3.91,4.09-12q-11.14-32.85-22-65.78C763.13,438.55,760.43,429.38,757.18,418.94Zm54,183.76c.36-2.67-.95-7.55-1.31-12.49-.46-6.38-1.82-12.71-3-19-.41-2.2-.91-3.87-4.13-1.71-15.22,10.21-28.48,22.17-36,39.26-7.3,16.5-9,33.36-2.08,50.53,1,2.61,2.43,3.75,5.44,3.8,12.38.23,21.6-5.5,28.84-14.93C808.64,635.42,810.23,620.33,811.15,602.7ZM942.88,463.91c14.84-8.81,28.26-17.85,39.51-29.82,7.11-7.57,12.89-16.14,18.82-24.6,3.41-4.86,6.69-9.73,7.95-15.72.4-1.87.52-2.33-1.62-2.88-8.4-2.17-16.22.11-23.44,3.64C955.67,408.43,945.83,433.69,942.88,463.91Z"/><path class="cls-3" d="M593,785.16c-19.29-.27-38.6-.3-57.24-6.45-23.94-7.91-44.7-21.25-63.81-37.34-39.54-33.3-70.08-74.19-98.25-117a819.45,819.45,0,0,1-45.05-77.14c-1.77-3.45-3.35-4.41-7.27-3.25a212.38,212.38,0,0,1-55.46,8.94c-3.43.08-4.21,1.74-4.67,4.38q-6.56,37.31-13.13,74.6-11.85,67-23.77,133.93-4.25,24-8.32,48.11c-2.36,13.92-11.59,21.59-24,21.62-11.94,0-21.66-9.55-22.69-21.78-.62-7.36,1.81-14.48,3.06-21.65,7.08-40.75,14.4-81.45,21.63-122.17q11.9-67,23.77-133.94,12.75-72.37,25.38-144.79c4.6-26.17,9.13-52.35,14-78.47,1.83-9.78,7.76-16.39,17.72-18.86a417.6,417.6,0,0,1,70.32-11.08c23-1.68,45.92-1.07,68.44,4.29,27.6,6.56,50.95,19.54,64.73,45.7,9.32,17.69,11.36,36.78,9.09,56.3-4.78,41.18-27.53,72-57.75,98.28a254.91,254.91,0,0,1-55,36c-3.28,1.62-4.35,2.93-2.33,6.67C400,581.37,430.87,630.5,469.94,674c17.62,19.63,36.92,37.44,60,50.74,15.27,8.78,31.63,12.54,49.06,13.06,28.63.85,56.87-1,84.12-10.72a115.77,115.77,0,0,0,23.67-11.68c12.39-8,26.48-5.45,33.73,5.93C728,733,724.49,747,712.22,755.14c-22.5,14.92-47.65,22.58-74,26.79A251.17,251.17,0,0,1,593,785.16ZM441.32,373.22c.75-19.43-10.65-30.9-29.08-37.33-13.68-4.77-27.88-6.3-42.17-6.55-22.16-.4-44.08,2.24-65.84,6.46-3,.59-4.09,1.67-4.59,4.59-2.71,15.87-5.69,31.69-8.48,47.54q-9.72,55.17-19.39,110.34c-1.28,7.25-1.17,7.47,6,6.47A229.38,229.38,0,0,0,328.43,492c34.35-13.12,65.43-31.28,89.63-59.57C431.77,416.44,441.27,398.42,441.32,373.22Z"/><path class="cls-3" d="M566.87,356.79c.23-7.77,2.61-13.47,7.48-18,15.19-14.09,29-29.19,39.34-47.4,6.15-10.86,20.29-14,31-7.92a23.78,23.78,0,0,1,9.19,31.61c-6.61,13-15.4,24.46-25,35.36a230.44,230.44,0,0,1-22.8,23c-7.8,6.7-16.6,8.42-25.92,3.94C571.24,373.12,567.17,365.44,566.87,356.79Z"/><path class="cls-1" d="M811.15,602.7c-.92,17.63-2.51,32.72-12.28,45.44-7.24,9.43-16.46,15.16-28.84,14.93-3-.05-4.39-1.19-5.44-3.8-6.88-17.17-5.22-34,2.08-50.53,7.56-17.09,20.82-29,36-39.26,3.22-2.16,3.72-.49,4.13,1.71,1.18,6.31,2.54,12.64,3,19C810.2,595.15,811.51,600,811.15,602.7Z"/><path class="cls-1" d="M942.88,463.91c3-30.22,12.79-55.48,41.22-69.38,7.22-3.53,15-5.81,23.44-3.64,2.14.55,2,1,1.62,2.88-1.26,6-4.54,10.86-7.95,15.72-5.93,8.46-11.71,17-18.82,24.6C971.14,446.06,957.72,455.1,942.88,463.91Z"/><path class="cls-1" d="M441.32,373.22c-.05,25.2-9.55,43.22-23.26,59.24-24.2,28.29-55.28,46.45-89.63,59.57a229.38,229.38,0,0,1-50.63,12.71c-7.2,1-7.31.78-6-6.47q9.75-55.15,19.39-110.34c2.79-15.85,5.77-31.67,8.48-47.54.5-2.92,1.55-4,4.59-4.59,21.76-4.22,43.68-6.86,65.84-6.46,14.29.25,28.49,1.78,42.17,6.55C430.67,342.32,442.07,353.79,441.32,373.22Z"/></svg>