<svg id="Layer_1" data-name="Layer 1" xmlns="http://www.w3.org/2000/svg" xmlns:xlink="http://www.w3.org/1999/xlink" viewBox="0 0 339.41 1820.68"><defs><style>.cls-1{fill:url(#linear-gradient);}.cls-2{fill:url(#linear-gradient-2);}</style><linearGradient id="linear-gradient" x1="-665.59" y1="1845.53" x2="59.59" y2="59.51" gradientUnits="userSpaceOnUse"><stop offset="0" stop-color="#4b3b8f"/><stop offset="0.18" stop-color="#fac943"/><stop offset="1" stop-color="#9dd3d1"/></linearGradient><linearGradient id="linear-gradient-2" x1="-430.53" y1="1940.97" x2="294.65" y2="154.95" gradientUnits="userSpaceOnUse"><stop offset="0" stop-color="#5427b2"/><stop offset="0.18" stop-color="#fbca43"/><stop offset="1" stop-color="#8ff5e4"/></linearGradient></defs><path class="cls-1" d="M0,189.58v.22c5.32-.2,9.88-.22,13.56-.22Z"/><path class="cls-2" d="M339.23,558.61C336.43,440.8,301.78,372,270.86,329.66c-10.17-13.93-105.28-140-256.92-140.08h-.38c-3.68,0-8.24,0-13.56.22V304.45c53.93-2,104.42,31.69,119.09,41.46a209.94,209.94,0,0,1,60.26,61.62c12.21,19.39,21.83,42.05,28.14,72.34C231.6,595.63,201,720.22,201,720.22c-34.89,142.12-93.29,253.65-130.87,318C53.42,1066.9,30.36,1104.16,0,1146.8v194.45C220.46,1091.24,344.81,793.6,339.23,558.61Z"/></svg>