<svg id="Layer_1" data-name="Layer 1" xmlns="http://www.w3.org/2000/svg" xmlns:xlink="http://www.w3.org/1999/xlink" viewBox="0 0 1276.37 1820.46"><defs><style>.cls-1{fill:url(#linear-gradient);}.cls-2{fill:url(#linear-gradient-2);}</style><linearGradient id="linear-gradient" x1="636.93" y1="1855.92" x2="1362.11" y2="69.91" gradientUnits="userSpaceOnUse"><stop offset="0" stop-color="#5427b2"/><stop offset="0.18" stop-color="#fbca43"/><stop offset="1" stop-color="#8ff5e4"/></linearGradient><linearGradient id="linear-gradient-2" x1="542.09" y1="1817.41" x2="1267.27" y2="31.4" xlink:href="#linear-gradient"/></defs><path class="cls-1" d="M1228.84,316.66a109.46,109.46,0,0,1,47.53-12.43V189.58c-29.42,1-81.74,7.14-132.48,42.13-82.83,57.13-99.48,148.53-103.25,169.21-14.22,78,9.65,139.66,18.64,162,54.18,134.77,186.72,185.75,217.09,196.4V632.23c-23.53-13-77.88-47.72-103.91-114.25-5.84-14.92-16.84-44-13.2-82C1160.44,423.67,1169.14,348.1,1228.84,316.66Z"/><path class="cls-2" d="M1044.78,1402.7c-21.36,18.74-112.47,97.58-244.49,174.57C508.45,1747.45,199.78,1801.83,0,1820.46l538.45-.78c191-62.29,431.43-175.54,648.78-385.38q46.86-45.24,89.14-93.27V1146.58A1493.76,1493.76,0,0,1,1044.78,1402.7Z"/></svg>