<svg id="Layer_1" data-name="Layer 1" xmlns="http://www.w3.org/2000/svg" xmlns:xlink="http://www.w3.org/1999/xlink" viewBox="0 0 2539 536.7"><defs><style>.cls-1{fill:url(#linear-gradient);}</style><linearGradient id="linear-gradient" x1="2539" y1="268.35" x2="0" y2="268.35" gradientUnits="userSpaceOnUse"><stop offset="0" stop-color="#5427b2"/><stop offset="0.13" stop-color="#592cae"/><stop offset="0.29" stop-color="#693ba4"/><stop offset="0.46" stop-color="#825493"/><stop offset="0.65" stop-color="#a6777b"/><stop offset="0.85" stop-color="#d3a35d"/><stop offset="1" stop-color="#fbca43"/></linearGradient></defs><path class="cls-1" d="M0,450.91v78.74a882.39,882.39,0,0,0,135,6.73c53-1.42,97.28-2.6,149.7-17.61,42.54-12.18,131.17-37.55,190.88-120.17,43.59-60.32,52.4-124.35,55.42-146.33,6-43.49,1.85-82.53.91-90.78-2-17.43-3.2-28.21-7.38-41.83C506.81,62.09,460,30.9,454,27.07,409.15-1.92,364.44-.42,344.23.27c-37.42,1.26-66,12.56-81.06,18.64C254.77,22.31,231,32.08,208.52,49c-16.4,12.29-77.16,62.08-82.43,141.1-4.47,66.91,33.48,115.34,61.45,151,33.88,43.24,70.55,66.39,90.91,79,71.49,44.26,139,53.54,172.23,57.76,73.9,9.38,130.22-1,210.3-16.32,66.44-12.75,78.73-20.47,163.68-42.47,181.4-47,333.54-65.72,427.08-76.92,29.75-3.57,51.87-5.85,58-6.48,196.94-20.17,360.19-19,483.79-12.43,57.42,3.06,113.32,6,189.85,16.32,151.06,20.27,260.83,52.61,300.17,64.74,123.44,38.1,199,76.59,228.95,92.47,11.16,5.92,20.3,11,26.48,14.5V421.65a1518.8,1518.8,0,0,0-162.45-68.89c-24.29-8.68-114.17-40.08-256.41-67.34-138.8-26.61-246.15-33.68-320.63-38.33a2941.32,2941.32,0,0,0-501.67,11.65c-13.22,1.43-22.79,2.56-31.85,3.63-75.13,8.85-306.29,36.09-483.8,88.05-6.64,1.95-44.13,13-94.79,25.39C617.47,392.93,586.63,397,577.58,398.08c-27.76,3.45-57.3,7-96.34,4.66-28.93-1.72-63.68-4.07-105.93-20.2a305.45,305.45,0,0,1-86.5-50.76,300,300,0,0,1-37-37c-15-17.86-26.07-31-34.32-51.93-4.8-12.16-15.33-38.84-7.25-68.37a109.41,109.41,0,0,1,12.17-27.33,127.83,127.83,0,0,1,20.72-25,164.49,164.49,0,0,1,106.45-44.8c10.48-.38,20.89-.75,33.93,2.85,3,.83,23.6,6.76,40.53,23.69,21.2,21.21,24.75,47.74,28.23,73.82,1.21,9.08,5.88,48.18-8,98.93-5.27,19.23-13.16,48-34.7,78-38.15,53-92.44,72.46-121.47,82.88-34.21,12.27-60.17,14.89-102.56,19.16-65.94,6.65-121,1.52-147.11-1C22.26,454,9,452.22,0,450.91Z"/></svg>