<svg id="Layer_1" data-name="Layer 1" xmlns="http://www.w3.org/2000/svg" xmlns:xlink="http://www.w3.org/1999/xlink" viewBox="0 0 480.41 1820.46"><defs><style>.cls-1{fill:url(#linear-gradient);}</style><linearGradient id="linear-gradient" x1="251.56" y1="22.85" x2="188.35" y2="1820.4" gradientUnits="userSpaceOnUse"><stop offset="0" stop-color="#fbca43"/><stop offset="1" stop-color="#f58fd4"/></linearGradient></defs><path class="cls-1" d="M374,0h73.23c11.2,45.46,18,84.68,22.33,114.91,6.06,42.43,12.19,86.78,10.62,144.92-1,36-2.06,68.81-13,111.34-7.11,27.58-17,64.76-44.88,105.17-27,39.27-56.75,61.13-63.72,66.12-34.19,24.48-65.49,33.87-86.33,39.91-55.6,16.14-100.76,13-116.82,11.48-24.29-2.38-47.07-4.63-73.66-18.5-9.75-5.09-37.51-20-58.24-52.07C-3.44,481.6-.59,438.69.88,420.5c3.76-46.47,24.5-78.26,33.57-91.81,10.63-15.86,31.81-46.62,73-66.12a169.39,169.39,0,0,1,77.08-16.1c46.76,1.44,79.38,22.37,102.3,37.08,38.67,24.81,62.19,54.91,76.53,73.57a344.31,344.31,0,0,1,22.27,32.55c42.3,71.14,44.4,144.46,44.88,172,.62,36.34-3.91,65.07-7.2,85.3-5.26,32.36-14.14,68.61-22.61,103.12-2.88,11.77-5.12,20.51-5.48,21.93-69,270.58-90.79,458-90.79,458-3.63,31.33-15,134-17,267-1.31,86.82,1.94,146.71,2.91,163.42,3.64,63,9.71,117.23,15.59,160H235.38c-3-22.5-6.79-52.73-10.1-88.53-1.85-19.91-6.83-76.81-8.57-153.82-3.22-143,6.87-261.72,14.73-351.33.32-3.62.48-5.42.71-8,16.93-186.52,54.59-323,93.46-463.89.52-1.89,8-29,16.31-65.8,10.91-48.36,13.38-69.76,14.05-75.92,1.9-17.34,4.13-38.52,2.57-66.12-1.3-23.1-3.29-53.7-18-89.93-2.47-6.08-14.21-34.31-39.23-64.92a263.27,263.27,0,0,0-63.55-55.84c-17.78-11.07-29.27-15-39.4-17.13a92.44,92.44,0,0,0-37.51-.6c-23.16,4.63-38,17.77-47.28,26.21C82.41,373.2,75.22,408.6,73.17,419.47c-1.93,10.24-4.41,24.23,0,41.46a75.07,75.07,0,0,0,14.21,29.29c15.49,19.23,36.65,24.75,47.8,27.66,10.67,2.79,18.93,3.2,32.28,3.86a261.69,261.69,0,0,0,39.57-1.2c12.57-1.17,27.77-2.66,47.19-7.88a233,233,0,0,0,40.09-14.73,163.75,163.75,0,0,0,27.58-16.11,175.22,175.22,0,0,0,19.27-16.74c30.18-30.63,46.34-75.45,48-80.29,7.39-21,10.17-37.89,13.37-57.3a489.53,489.53,0,0,0,5.48-51.73c1.4-25.91.46-45-1-73.83-.62-11.91-1.9-36.51-4.63-61.67C399,108.88,391.61,60.94,374,0Z"/></svg>