<?xml version="1.0" encoding="UTF-8"?>
<svg width="15px" height="16px" viewBox="0 0 15 16" version="1.1" xmlns="http://www.w3.org/2000/svg" xmlns:xlink="http://www.w3.org/1999/xlink">
    <title>B934D6A8-83F4-4839-B6BE-886AB111D4B8</title>
    <g id="Pages" stroke="none" stroke-width="1" fill="none" fill-rule="evenodd">
        <g id="Homepage" transform="translate(-1193.000000, -12.000000)" fill="#FFFFFF">
            <g id="Header---Top">
                <path d="M1196.16369,12.7553131 L1198.36086,15.0322609 C1198.66048,15.3643157 1198.66048,15.8861163 1198.31093,16.1707347 L1196.91273,17.4040814 C1196.46331,17.7835727 1196.51324,18.0681912 1196.86279,18.4476825 L1201.90629,23.6182513 C1202.25584,23.9977426 1202.55546,24.045179 1202.95494,23.7131241 L1204.35314,22.4797774 C1204.70269,22.1477225 1205.25198,22.1951589 1205.5516,22.5272138 L1207.7987,24.8041615 C1208.09832,25.1362164 1208.04838,25.6105805 1207.74877,25.9426354 C1204.1534,29.5952391 1199.40951,26.0375082 1196.76292,23.2861964 C1194.11633,20.5348846 1190.82058,15.7912434 1194.96524,12.7078767 C1195.31479,12.4232583 1195.81414,12.4232583 1196.16369,12.7553131 Z" id="icon_header_6"></path>
            </g>
        </g>
    </g>
</svg>