<?xml version="1.0" encoding="UTF-8"?><svg id="Layer_1" xmlns="http://www.w3.org/2000/svg" viewBox="0 0 200 200"><defs><style>.cls-1{fill:#1e3c70;}.cls-2{fill:#fff;}.cls-3{fill:none;stroke:#1d1d1b;stroke-linecap:round;stroke-linejoin:round;stroke-width:5px;}.cls-4{fill:#6aabdc;}</style></defs><path d="m199.7,199.7h-94.55c-52.22,0-94.55-42.33-94.55-94.55h0C10.61,52.94,52.94,10.61,105.15,10.61h0c52.22,0,94.55,42.33,94.55,94.55v94.55"/><path d="m.3.3h94.55c52.22,0,94.55,42.33,94.55,94.55h0c0,52.22-42.33,94.55-94.55,94.55h0c-52.22,0-94.55-42.33-94.55-94.55V.3"/><path class="cls-1" d="m0,0h97.54C148.24,0,189.39,41.16,189.39,91.86v5.68c0,50.7-41.16,91.86-91.86,91.86h-5.68C41.16,189.39,0,148.24,0,97.54V0H0Z"/><path class="cls-4" d="m102.46,10.61h5.68c50.7,0,91.86,41.16,91.86,91.86v97.54h-97.54c-50.7,0-91.86-41.16-91.86-91.86v-5.68C10.61,51.76,51.76,10.61,102.46,10.61Z"/><path class="cls-2" d="m189.39,91.86v5.68c0,50.73-41.12,91.85-91.85,91.85h-5.68c-22.66,0-43.41-8.21-59.43-21.82-13.61-16.02-21.82-36.77-21.82-59.43v-5.68C10.61,51.73,51.73,10.61,102.46,10.61h5.68c22.66,0,43.41,8.21,59.43,21.82,13.61,16.02,21.82,36.77,21.82,59.43Z"/><g><g><g><path class="cls-4" d="m72.52,119.91c0,.85-.09,1.66-.27,2.42-1.11,1.47-2.49,2.81-4.11,4.02-3.42,2.56-7.6,4.27-12.54,5.15h-.58c-6.31,0-14.24-2.14-23.79-6.45v5.07c-.93-.2-1.88-.41-2.85-.65-1.48-.36-3-.74-4.56-1.17v-10.67c1.57.71,3.09,1.36,4.56,1.94,7.54,3.01,13.95,4.52,19.23,4.52s9.57-1.06,12.75-3.15c3.17-2.1,4.76-4.91,4.76-8.45,0-.61-.05-1.2-.15-1.76,2.17,1.01,3.74,1.93,4.76,2.78,1.88,1.57,2.82,3.7,2.82,6.4Z"/><path class="cls-4" d="m74.09,102.78c-1.75-1.02-3.75-1.94-5.99-2.73l-6.56-2.24-6.89-2.4c-4.93-1.72-8.3-3.38-10.12-5.01-1.36-1.21-2.21-2.7-2.56-4.49,1.49.69,3.25,1.38,5.26,2.08l6.89,2.41,6.56,2.24c6.62,2.32,11.09,5.7,13.41,10.14Z"/><path class="cls-4" d="m70.08,61.95v5.61c-4.97-1.03-9.59-1.53-13.85-1.53-2.81,0-5.39.22-7.75.68-8.84.1-13.52,3-14.06,8.7-1.79,2.9-2.7,6.38-2.7,10.47,0,2.76.49,5.2,1.48,7.32-1.97-1.16-3.54-2.33-4.71-3.53-.04-.04-.07-.07-.11-.11-2.72-2.79-4.08-6.49-4.08-11.11,0-5.01,1.36-9.14,4.08-12.36.69-.82,1.48-1.59,2.35-2.3,4.28-3.46,10.31-5.2,18.08-5.2,6.31,0,13.4,1.12,21.28,3.34Z"/></g><g><path class="cls-4" d="m168.77,121.23v8.86c-2.78,1-5.5,1.8-8.15,2.41-.76.06-1.49.09-2.21.09-8.32,0-15.12-2.65-20.4-7.93-1.27-1.27-2.39-2.63-3.35-4.07,4.57,3.06,10.02,4.59,16.34,4.59,5.03,0,10.96-1.31,17.78-3.94Z"/><path class="cls-4" d="m167.84,63.57v5.56c-4.34-.87-8.51-1.31-12.49-1.31-2.81,0-5.48.22-8.02.68-7.13.06-13.01,2.73-17.64,7.98-.93,1.06-1.77,2.17-2.5,3.35-5.73,6.61-8.59,14.99-8.59,25.13,0,8.75,2.19,16.14,6.58,22.17-1.33-.97-2.58-2.03-3.77-3.2-6.82-6.69-10.23-15.48-10.23-26.39s3.39-20,10.18-26.86c6.78-6.85,15.64-10.28,26.58-10.28,6.2,0,12.83,1.06,19.91,3.17Z"/></g><g><path class="cls-1" d="m83.35,118.21c0,6.49-2.6,11.68-7.79,15.56-5.2,3.88-12.15,5.83-20.87,5.83-6.05,0-13.88-1.3-23.46-3.89v-5.6c6.29,1.37,11.63,2.06,16.05,2.06,2.98,0,5.76-.22,8.32-.69,5.06-.07,9.11-1.12,12.17-3.14,2.41-1.59,3.91-3.6,4.49-6.02,2.45-3.23,3.69-7.08,3.69-11.54,0-2.97-.62-5.65-1.85-8.02,6.18,3.64,9.27,8.78,9.27,15.43Z"/><path class="cls-1" d="m64.96,110.73c-1.87-.87-4.15-1.8-6.87-2.8l-7.22-2.63c-7.18-2.66-12.17-5.4-14.96-8.21-1.14-1.14-2.04-2.44-2.7-3.9,2.68,1.59,6.1,3.15,10.25,4.69l7.22,2.63c5.87,2.15,9.74,4.01,11.62,5.57,1.45,1.21,2.34,2.76,2.67,4.64Z"/><path class="cls-1" d="m77.5,69.37v9.35c-7.91-3.07-14.95-4.59-21.12-4.59-9.74,0-14.6,3.28-14.6,9.84,0,.68.06,1.32.18,1.93-2.16-1-3.78-1.97-4.86-2.93-1.82-1.62-2.73-3.76-2.73-6.43,0-.39.01-.77.05-1.13.97-1.57,2.22-2.97,3.73-4.19,2.73-2.21,6.18-3.72,10.33-4.51.16,0,.32,0,.49,0,6.16,0,13.2,1.53,21.11,4.59v-3.74c2.39.48,4.87,1.08,7.42,1.81Z"/></g><g><path class="cls-1" d="m176.19,128.65v8.86c-1.61.57-3.21,1.09-4.77,1.54-5.46,1.56-10.67,2.35-15.63,2.35-11.15,0-20.15-3.35-26.96-10.04-1.35-1.32-2.56-2.72-3.65-4.22,6.25,4.56,13.99,6.83,23.2,6.83,3.92,0,8-.49,12.25-1.47,3.26-.23,6.86-.96,10.8-2.19,1.54-.47,3.13-1.03,4.77-1.67Z"/><path class="cls-1" d="m175.26,70.99v9.9c-1.29-.59-2.57-1.14-3.85-1.63-5.78-2.22-11.24-3.34-16.39-3.34-7.25,0-13.22,2.66-17.91,7.98-4.68,5.32-7.02,12.11-7.02,20.35,0,6.32,1.52,11.75,4.57,16.33-1.44-.96-2.8-2.08-4.06-3.34-5.29-5.28-7.93-12.09-7.93-20.4,0-6.61,1.5-12.27,4.52-17,.5-.59,1.03-1.16,1.59-1.72,5.04-5.1,11.23-8.29,18.56-9.6h.27c6.27,0,13.01,1.66,20.24,4.97v-4.35c1.18.24,2.37.51,3.57.81,1.28.32,2.55.67,3.85,1.05Z"/></g></g><path class="cls-3" d="m149.08,56.13h-33.86l-20.21,101.04h-15.75l20.21-101.04h-33.85l2.71-13.3h83.46l-2.72,13.3Z"/></g></svg>