<svg xmlns="http://www.w3.org/2000/svg" width="234.234" height="89.284" viewBox="0 0 234.234 89.284">
  <g id="Group_16" data-name="Group 16" transform="translate(-1571.946 -35.76)">
    <g id="Group_15" data-name="Group 15">
      <g id="Group_13" data-name="Group 13">
        <rect id="Rectangle_6" data-name="Rectangle 6" width="3.175" height="61.176" transform="translate(1680.939 35.76)" fill="#1e3c71"/>
        <g id="Group_12" data-name="Group 12">
          <g id="Group_11" data-name="Group 11">
            <g id="Group_9" data-name="Group 9">
              <path id="Path_13" data-name="Path 13" d="M1702.022,58.712v2.4h-1.642V73.179h1.642v2.38H1697.7V58.712Z" fill="#68a9dc"/>
            </g>
            <g id="Group_10" data-name="Group 10">
              <path id="Path_14" data-name="Path 14" d="M1778.536,75.559v-2.4h1.643V61.092h-1.643v-2.38h4.319V75.559Z" fill="#68a9dc"/>
            </g>
          </g>
          <text id="GRIFFIN" transform="translate(1740.899 49.937)" fill="#1e3c71" font-size="18.178" font-family="JosefinSans-Bold, Josefin Sans" font-weight="700" letter-spacing="0.12em"><tspan x="-44.454" y="0">GRIFFIN</tspan></text>
          <text id="WEB" transform="translate(1739.898 72.51)" fill="#68a9dc" font-size="18.178" font-family="JosefinSans-Bold, Josefin Sans" font-weight="700" letter-spacing="0.112em"><tspan x="-23.268" y="0">WEB</tspan></text>
          <text id="STUDIO" transform="translate(1741.039 96.616)" fill="#1e3c71" font-size="18.178" font-family="JosefinSans-Bold, Josefin Sans" font-weight="700" letter-spacing="0.2em"><tspan x="-44.381" y="0">STUDIO</tspan></text>
        </g>
      </g>
      <g id="Group_14" data-name="Group 14">
        <path id="Path_15" data-name="Path 15" d="M1634.686,53.746c-9.1-6.956-17.311,13.582-25.305,7.141-.644,1.776-1.518,5.107-.533,6.149.985,1.286,2.782.073,3.925,1.2l.009.01-.139.176a3.493,3.493,0,0,1-5.718-.212h0a20.007,20.007,0,0,1,20.543-30.407c-18.5-5.091-37.433,9.346-37.256,28.647a29.32,29.32,0,0,0,6,17.869c7.808-1.86,17.663-5.753,27.354-10.932l.086-.046A37.174,37.174,0,0,0,1634.933,64c.785-.965,1.613-1.911,2.442-2.867,2.084-2.4,4.049-3.862,7.031-3.314C1644.732,48.9,1640.83,50.575,1634.686,53.746Zm-4.242,3.286c-1.967,2.691-3.774,3.215-7.056,2.171,2.6-1.89,5.229-3.831,8.142-3.257C1631.265,56.191,1630.881,56.558,1630.444,57.032Z" fill="#1e3c71"/>
        <path id="Path_16" data-name="Path 16" d="M1648.183,75.16a29.649,29.649,0,0,1-27.758,20.926h0a29.3,29.3,0,0,1-17.726-5.468,210.2,210.2,0,0,0,25.953-12.045,20.49,20.49,0,0,0-.011,2.082l0,.021a4.513,4.513,0,0,0,3.1,3.7h0a4.487,4.487,0,0,0,1.949.176v0h0c.525-.067,1.045-.155,1.556-.262h0a19.977,19.977,0,0,0,11.931-7.656h0Q1647.717,75.922,1648.183,75.16Z" fill="#1e3c71"/>
        <path id="Path_17" data-name="Path 17" d="M1629.16,75.842c-15.178,8.3-35.69,17.838-50.449,18.4-2.307-.027-4.591-.291-5.968-1.733-3.081-3.887,3.064-11.085,13.292-19.341-5.6,5.8-8.705,12.075-2.506,14.02h0c4.884,1.4,12.581-.464,17.726-2h0a116.6,116.6,0,0,0,13.128-4.929c3.4-1.5,6.725-3.122,10.2-4.975,15.987-8.135,37.953-25.509,32.088-31.878a6.068,6.068,0,0,0-3.334-1.655,18.172,18.172,0,0,0-4.51-.244,38.345,38.345,0,0,0-4.582.553,78.438,78.438,0,0,1,12.222-3.006c2.835-.413,6.375-.66,8.783.245C1675.53,43.792,1652.964,62.723,1629.16,75.842Z" fill="#68a9dc"/>
      </g>
    </g>
    <path id="Path_18" data-name="Path 18" d="M1691.5,84.5c44.035-.549,94-1.143,94-1,0,.2-94.952.89-95,4-.006.411,1.648.748,3,1,24.267,4.528,75.051,5.02,75,2-.03-1.753-17.152-2.806-25-3-23.108-.57-43.077,4.412-43,5,.013.1.578.106,3,0,16.232-.707,52.142-3.75,71-5,4.339-.288,11.9-.753,12,0,.081.584-4.376,1.521-13,4-7.155,2.057-11.455,3.53-13,4-17.178,5.223-68.2.236-68-2,.055-.6,13.037-.4,39,0,32.283.5,61,1.881,61,2-.008.223-99.977-1.913-100-5-.023-3.053,97-5.948,97-6s-100.039,3.635-100,5,97.992-.481,98,0-95,1.5-95,3,95.834,3.953,96,1c.165-2.932-94.106-9.566-94-11,.108-1.467,99,2.5,99,7s-98.918,8.188-99,7,98.131-6.68,98-11c-.132-4.347-99.8-6.193-100-3-.193,3.133,103.068,11.243,103,12s-102.129-6.195-102-9c.126-2.755,98.82-2.238,99,2,.13,3.069-51.42,7.735-92,11" fill="none" stroke="#68a9dc" stroke-linecap="round" stroke-miterlimit="10" stroke-width="1"/>
    <text id="Garage" transform="matrix(0.995, -0.103, 0.103, 0.995, 1678, 107.14)" font-size="37" font-family="SegoeScript-Bold, Segoe Script" font-weight="700" letter-spacing="-0.052em"><tspan x="0" y="0">Garage</tspan></text>
  </g>
</svg>
