<svg width="32" height="32" xmlns="http://www.w3.org/2000/svg"><path d="M16 0C7.166 0 0 7.163 0 16c0 6.55 3.94 12.18 9.579 14.655-.046-1.116-.008-2.46.276-3.675.309-1.299 2.059-8.717 2.059-8.717s-.51-1.022-.51-2.533c0-2.37 1.375-4.141 3.085-4.141 1.456 0 2.159 1.093 2.159 2.402 0 1.462-.933 3.651-1.413 5.678-.401 1.698.85 3.082 2.525 3.082 3.031 0 5.073-3.894 5.073-8.507 0-3.506-2.362-6.13-6.658-6.13-4.852 0-7.876 3.618-7.876 7.66 0 1.395.41 2.378 1.054 3.138.298.352.337.49.23.893-.076.292-.252 1.004-.326 1.284-.107.404-.435.551-.8.4-2.237-.912-3.277-3.36-3.277-6.113 0-4.543 3.833-9.997 11.434-9.997 6.11 0 10.13 4.424 10.13 9.168 0 6.276-3.488 10.966-8.634 10.966-1.725 0-3.351-.934-3.908-1.993 0 0-.93 3.686-1.125 4.397-.339 1.233-1.003 2.467-1.611 3.427 1.44.425 2.96.656 4.535.656C24.836 32 32 24.837 32 16S24.836 0 16 0" fill-rule="evenodd"/></svg>