<svg xmlns="http://www.w3.org/2000/svg" viewBox="0 0 15 16" style="enable-background:new 0 0 15 16" xml:space="preserve"><path d="M14.7 13.6 12 10.9c.8-1.1 1.2-2.4 1.2-3.8 0-1.8-.6-3.4-1.9-4.7C10 1.1 8.5.5 6.6.5c-1.8 0-3.4.6-4.7 1.9C.6 3.7 0 5.2 0 7.1c0 1.8.6 3.4 1.9 4.7 1.3 1.3 2.8 1.9 4.7 1.9 1.4 0 2.7-.4 3.8-1.2l2.7 2.7c.2.2.5.3.8.3.3 0 .6-.1.8-.3.2-.2.3-.5.3-.8 0-.3-.1-.6-.3-.8zm-4.9-3.5c-.1 0-.1.1 0 0l-.1.1c-.8.8-1.9 1.2-3 1.2-1.2 0-2.3-.4-3.1-1.3-.9-.9-1.3-1.9-1.3-3.1 0-1.2.4-2.3 1.3-3.1.9-.9 1.9-1.3 3.1-1.3 1.2 0 2.2.4 3.1 1.3.9.9 1.3 1.9 1.3 3.1-.1 1.3-.5 2.3-1.3 3.1z"/></svg>