<svg width="32" height="28" xmlns="http://www.w3.org/2000/svg"><path d="M32 3.824a12.823 12.823 0 0 1-3.77 1.059 6.717 6.717 0 0 0 2.887-3.723 12.93 12.93 0 0 1-4.171 1.631A6.474 6.474 0 0 0 22.154.667c-3.623 0-6.563 3.014-6.563 6.731 0 .528.057 1.04.17 1.534C10.304 8.65 5.468 5.973 2.228 1.896a6.854 6.854 0 0 0-.889 3.387 6.776 6.776 0 0 0 2.92 5.603 6.446 6.446 0 0 1-2.974-.84v.084c0 3.262 2.263 5.984 5.268 6.6a6.26 6.26 0 0 1-1.73.237 6.31 6.31 0 0 1-1.236-.12c.836 2.674 3.26 4.621 6.133 4.673a12.963 12.963 0 0 1-8.154 2.884c-.53 0-1.053-.031-1.566-.093a18.279 18.279 0 0 0 10.064 3.022c12.077 0 18.68-10.256 18.68-19.153 0-.292-.007-.585-.018-.872A13.474 13.474 0 0 0 32 3.824" fill-rule="evenodd"/></svg>