<svg xmlns="http://www.w3.org/2000/svg" viewBox="0 0 24 28.8" style="enable-background:new 0 0 24 28.8" xml:space="preserve"><path d="M3.2 0h1.7l1.2 4.4L7.2 0h1.7l-2 6.6v4.5H5.2V6.6L3.2 0zm7.9 2.8c-1.2-.1-2.2.8-2.2 2V9c-.1 1.1.6 2.1 1.7 2.2h.5c1.2.1 2.1-.8 2.2-2V5c0-1.2-.9-2.2-2.1-2.2h-.1zm.6 6.2c0 .4-.2.8-.6.8-.4 0-.7-.3-.7-.7V5.2c0-.4.2-.8.6-.8.5 0 .7.3.7.8V9zm5.7-6.1v6.2c-.2.2-.6.6-.9.6-.3 0-.4-.2-.4-.6V2.9h-1.5v6.9c0 .8.2 1.5 1.1 1.5.7-.1 1.4-.4 1.8-1v.9H19V2.9h-1.6zm2.7 16.6c-.5 0-.6.4-.6.9v.8h1.3v-.8c-.1-.5-.2-.9-.7-.9zm-5.7.1c-.1.1-.2.1-.3.2v4.9l.3.3c.2.1.5.1.7-.1.1-.2.1-.4.1-.5v-4c0-.2 0-.4-.2-.6 0-.3-.3-.4-.6-.2zm5.8-6.2c-3.1-.2-13.3-.2-16.4 0C.4 13.6 0 15.6 0 21c0 5.4.4 7.4 3.8 7.6 3.1.2 13.3.2 16.4 0 3.4-.2 3.8-2.3 3.8-7.6 0-5.4-.4-7.4-3.8-7.6zM5.4 26.2H3.8v-9H2.1v-1.5h5v1.5H5.4v9zm5.8 0H9.8v-.9c-.2.3-.5.5-.8.7-.8.4-1.9.4-1.9-1.1v-6.5h1.5v6c0 .3.1.5.4.5.3 0 .7-.4.9-.6v-5.9h1.5l-.2 7.8zm5.6-1.6c0 1-.4 1.7-1.3 1.7-.5 0-1.1-.3-1.4-.7v.6h-1.5V15.6h1.5V19c.3-.4.8-.7 1.3-.7 1.1 0 1.4.9 1.4 2v4.3zm5.4-2.1h-2.8V24c0 .6 0 1.1.6 1.1s.6-.4.6-1.1v-.5h1.5v.5c0 1.5-.6 2.4-2.2 2.4-1.4 0-2.1-1-2.1-2.4v-3.5c-.1-1.2.8-2.2 2-2.3h.2c1.4 0 2.1.9 2.1 2.3l.1 2z"/></svg>