<?xml version="1.0" encoding="utf-8"?>
<!-- Generator: Adobe Illustrator 24.2.0, SVG Export Plug-In . SVG Version: 6.00 Build 0)  -->
<svg version="1.1" id="Layer_1" xmlns="http://www.w3.org/2000/svg" xmlns:xlink="http://www.w3.org/1999/xlink" x="0px" y="0px"
	 viewBox="0 0 24 28.8" style="enable-background:new 0 0 24 28.8;" xml:space="preserve">
<path d="M3.2,0h1.7l1.2,4.4L7.2,0h1.7l-2,6.6v4.5H5.2V6.6L3.2,0z M11.1,2.8c-1.2-0.1-2.2,0.8-2.2,2c0,0.1,0,0.2,0,0.2v4
	c-0.1,1.1,0.6,2.1,1.7,2.2c0.2,0,0.4,0,0.5,0c1.2,0.1,2.1-0.8,2.2-2c0-0.1,0-0.1,0-0.2v-4c0-1.2-0.9-2.2-2.1-2.2
	C11.2,2.8,11.1,2.8,11.1,2.8L11.1,2.8z M11.7,9c0,0.4-0.2,0.8-0.6,0.8c-0.4,0-0.7-0.3-0.7-0.7c0,0,0,0,0-0.1V5.2
	c0-0.4,0.2-0.8,0.6-0.8c0.5,0,0.7,0.3,0.7,0.8V9z M17.4,2.9v6.2c-0.2,0.2-0.6,0.6-0.9,0.6c-0.3,0-0.4-0.2-0.4-0.6V2.9h-1.5v6.9
	c0,0.8,0.2,1.5,1.1,1.5c0.7-0.1,1.4-0.4,1.8-1v0.9h1.5V2.9L17.4,2.9z M20.1,19.5c-0.5,0-0.6,0.4-0.6,0.9v0.8h1.3v-0.8
	C20.7,19.9,20.6,19.5,20.1,19.5z M14.4,19.6c-0.1,0.1-0.2,0.1-0.3,0.2v4.9c0.1,0.1,0.2,0.2,0.3,0.3c0.2,0.1,0.5,0.1,0.7-0.1
	c0.1-0.2,0.1-0.4,0.1-0.5v-4c0-0.2,0-0.4-0.2-0.6C15,19.5,14.7,19.4,14.4,19.6z M20.2,13.4c-3.1-0.2-13.3-0.2-16.4,0
	C0.4,13.6,0,15.6,0,21c0,5.4,0.4,7.4,3.8,7.6c3.1,0.2,13.3,0.2,16.4,0c3.4-0.2,3.8-2.3,3.8-7.6C24,15.6,23.6,13.6,20.2,13.4z
	 M5.4,26.2H3.8v-9H2.1v-1.5h5v1.5H5.4L5.4,26.2L5.4,26.2z M11.2,26.2H9.8v-0.9c-0.2,0.3-0.5,0.5-0.8,0.7c-0.8,0.4-1.9,0.4-1.9-1.1
	v-6.5h1.5v6c0,0.3,0.1,0.5,0.4,0.5c0.3,0,0.7-0.4,0.9-0.6v-5.9h1.5L11.2,26.2L11.2,26.2z M16.8,24.6c0,1-0.4,1.7-1.3,1.7
	c-0.5,0-1.1-0.3-1.4-0.7v0.6h-1.5V15.6h1.5V19c0.3-0.4,0.8-0.7,1.3-0.7c1.1,0,1.4,0.9,1.4,2L16.8,24.6L16.8,24.6z M22.2,22.5h-2.8
	v1.5c0,0.6,0,1.1,0.6,1.1c0.6,0,0.6-0.4,0.6-1.1v-0.5h1.5V24c0,1.5-0.6,2.4-2.2,2.4c-1.4,0-2.1-1-2.1-2.4v-3.5
	c-0.1-1.2,0.8-2.2,2-2.3c0.1,0,0.1,0,0.2,0c1.4,0,2.1,0.9,2.1,2.3L22.2,22.5L22.2,22.5z"/>
</svg>
