<?xml version="1.0" encoding="UTF-8"?><svg id="Layer_1" xmlns="http://www.w3.org/2000/svg" viewBox="0 0 20 20"><defs><style>.cls-1{fill:#fff;}.cls-2{fill:#1d1d1b;}</style></defs><path class="cls-2" d="m11.15,2.56h-1.21v1.7h.02c.22.86.44,1.75.77,2.72l1.45,4.28h-2.24v1.5h2.64l1.59,4.68h2.05L11.15,2.56Z"/><rect class="cls-2" width="9.94" height="20"/><path class="cls-1" d="m9.16,6.96l-1.45,4.3h2.23v1.5h-2.63l-1.55,4.68h-1.98L8.83,2.56h1.11v1.7h-.03c-.22.89-.46,1.79-.75,2.7Z"/><path class="cls-2" d="m9.94,1.06v1h8v15.88h-8v1h9V1.06h-9Z"/><polygon class="cls-1" points="2.06 2.06 2.06 17.94 9.94 17.94 9.94 18.94 1.06 18.94 1.06 1.06 9.94 1.06 9.94 2.06 2.06 2.06"/></svg>