<?xml version="1.0" encoding="utf-8"?>
<!-- Generator: Adobe Illustrator 24.2.1, SVG Export Plug-In . SVG Version: 6.00 Build 0)  -->
<svg version="1.1" id="Layer_1" xmlns="http://www.w3.org/2000/svg" xmlns:xlink="http://www.w3.org/1999/xlink" x="0px" y="0px"
	 viewBox="0 0 15 16" style="enable-background:new 0 0 15 16;" xml:space="preserve">
<g id="Pages">
	<g id="Homepage" transform="translate(-1483.000000, -12.000000)">
		<path d="M1497.7,25.6l-2.7-2.7c0.8-1.1,1.2-2.4,1.2-3.8c0-1.8-0.6-3.4-1.9-4.7c-1.3-1.3-2.8-1.9-4.7-1.9c-1.8,0-3.4,0.6-4.7,1.9h0
			v0c-1.3,1.3-1.9,2.8-1.9,4.7c0,1.8,0.6,3.4,1.9,4.7c1.3,1.3,2.8,1.9,4.7,1.9c1.4,0,2.7-0.4,3.8-1.2l2.7,2.7
			c0.2,0.2,0.5,0.3,0.8,0.3c0.3,0,0.6-0.1,0.8-0.3c0.2-0.2,0.3-0.5,0.3-0.8C1498,26.1,1497.9,25.8,1497.7,25.6z M1492.8,22.1
			C1492.7,22.1,1492.7,22.2,1492.8,22.1c-0.1,0.1-0.1,0.1-0.1,0.1c-0.8,0.8-1.9,1.2-3,1.2c-1.2,0-2.3-0.4-3.1-1.3
			c-0.9-0.9-1.3-1.9-1.3-3.1c0-1.2,0.4-2.3,1.3-3.1c0.9-0.9,1.9-1.3,3.1-1.3c1.2,0,2.2,0.4,3.1,1.3c0.9,0.9,1.3,1.9,1.3,3.1
			C1494,20.3,1493.6,21.3,1492.8,22.1z"/>
	</g>
</g>
</svg>
