<svg version="1.1" id="Layer_1" xmlns="http://www.w3.org/2000/svg" xmlns:xlink="http://www.w3.org/1999/xlink" x="0px" y="0px" width="173.8" height="69.5"
	 viewBox="0 0 173.8 69.5" style="enable-background:new 0 0 173.8 69.5;" xml:space="preserve">
<style type="text/css">
	.st0{fill-rule:evenodd;clip-rule:evenodd;fill:#A02C2B;}
	.st1{fill-rule:evenodd;clip-rule:evenodd;fill:#354997;}
</style>
<path class="st0" d="M11.6,58.2L0,67.5V0.7h11.6C11.6,0.7,11.6,58.2,11.6,58.2z M12.3,61.1L2,69.5h171.8v-8.3
	C173.8,61.1,12.3,61.1,12.3,61.1z"/>
<path class="st1" d="M52.8,25.8c0,0,6.8-1.8,6.8-12.8C59.8,1.3,45.9,1.2,45.9,1.2H20.3c0,0,2.2,0,2.2,6.5v43l9.6-7.6V30.4h13.5
	c0,0,6.5,0.2,6.5,6.6c0,0,1.3,8.3-6.8,8.3H31.9l-9.3,8.1h24.9c0,0,15.6-1.2,15.6-14.1C63.1,26.4,52.8,25.8,52.8,25.8z M44.7,22.9
	H32.1V9.1h12.1c0,0,5.2,0.8,5.2,7S44.7,22.9,44.7,22.9z M146.9-0.2c-14.8,0-26.8,12.3-26.8,27.6c0,15.3,12,27.6,26.8,27.6
	c14.6,0,26.6-12.3,26.6-27.6C173.5,12.1,161.5-0.2,146.9-0.2z M146.9,46.7c-9,0-16.3-8.6-16.3-19.4s7.3-19.4,16.3-19.4
	c9.1,0,16.4,8.6,16.4,19.4C163.3,38,155.8,46.7,146.9,46.7z M70.6,53.7l8.8-7.6c2,0,8.8-0.7,8.8-0.7s15.3-2,15.5-19.6
	c0-15.1-15.8-16.1-15.8-16.1h-8.5V43l-9.3,7.8V6.5c0-4.8-1.5-5.2-1.5-5.2h20.3c0,0,26.3,0.5,26.3,24.6c0,27.6-26.9,27.9-26.9,27.9
	S74.4,54.2,70.6,53.7z"/>
</svg>
