<svg version="1.1" id="Layer_1" xmlns="http://www.w3.org/2000/svg" xmlns:xlink="http://www.w3.org/1999/xlink" x="0px" y="0px" width="364.8" height="68"
	 viewBox="0 0 364.8 68" style="enable-background:new 0 0 364.8 68;" xml:space="preserve">
<style type="text/css">
	.st0{fill:#231F20;}
	.st1{fill:url(#XMLID_00000128477469089314919590000004290923815249903512_);}
	.st2{fill:url(#XMLID_00000001631186649284684540000004536023359944468899_);}
	.st3{fill:url(#XMLID_00000067954558966048307500000013811421975504511934_);}
	.st4{fill:url(#XMLID_00000004509954405871390020000006713337686910581398_);}
</style>
<path id="XMLID_62_" class="st0" d="M331.5,27.6c-7.5,0-11.4,5.2-11.4,12c0,7.1,3.9,11.7,10.9,11.7s11.3-4.6,11.3-11.9
	C342.3,32.1,338.3,27.6,331.5,27.6 M255.9,27.6c-7.5,0-11.4,5.2-11.4,12c0,7.1,3.9,11.7,10.9,11.7s11.3-4.6,11.3-11.9
	C266.7,32.1,262.6,27.6,255.9,27.6 M103.5,37.4h8V45c-2.5,2.1-6.2,3-9.2,3c-7.6,0-11.9-4.9-11.9-13.5c0-9.1,4.6-14.2,11.8-14.2
	c4.3,0,7.5,1.5,10.5,4.4l2.7-3c-2.7-3-7.4-5.2-12.7-5.2c-10.7,0-17,7.5-17,17.9c0,10.2,5.3,17.3,16.7,17.3c6.3,0,11.2-2.8,13.6-5.4
	V33.9h-12.5L103.5,37.4L103.5,37.4z M222.1,50.9h4.1V37.8c0-3.8,1.6-6.4,5.5-6.4c3.7,0,4.8,1.6,4.8,5.4v14.1h4.2V35.6
	c0-5.2-2.2-7.9-7.2-7.9c-3.4,0-5.9,1.3-7.4,3.4V16.8H222v34.1H222.1z M219.9,20.4v-3.7h-24.1v3.7h9.9v30.4h4.5V20.4H219.9z
	 M346.2,50.9h4.1V37.8c0-3.8,1.6-6.4,5.5-6.4c3.7,0,4.8,1.6,4.8,5.4v14.1h4.2V35.6c0-5.2-2.2-7.9-7.2-7.9c-3.4,0-5.9,1.3-7.4,3.4
	l-0.5-2.9h-3.6v22.7H346.2z M157.2,50.9h4.1V37.8c0-3.8,1.6-6.4,5.5-6.4c3.7,0,4.8,1.6,4.8,5.4v14.1h4.2V35.6c0-5.2-2.2-7.9-7.2-7.9
	c-3.4,0-5.9,1.3-7.4,3.4l-0.5-2.9h-3.6L157.2,50.9L157.2,50.9z M285,50.9h4.1V37.8c0-3.8,1.6-6.4,5.5-6.4c3.7,0,4.8,1.6,4.8,5.4
	v14.1h4.2V35.6c0-5.2-2.2-7.9-7.2-7.9c-3.4,0-5.9,1.3-7.4,3.4l-0.5-2.9h-3.6v22.7H285z M331.2,48c-4.1,0-6.7-2.8-6.7-8.5
	c0-5.4,2.7-8.4,6.7-8.4c4.1,0,6.5,3,6.5,8.7C337.7,45.2,335.2,48,331.2,48 M255.5,48c-4.1,0-6.7-2.8-6.7-8.5c0-5.4,2.7-8.4,6.7-8.4
	c4.1,0,6.5,3,6.5,8.7C262.1,45.2,259.6,48,255.5,48 M318.6,31.9v-3.7H314v-6.5l-4.3,0.7v5.8h-3.3v3.7h3.3v14.4c0,3.2,1.2,5.2,6,5.2
	c1,0,2.6-0.2,3.6-0.5v-3.2c-1,0.3-1.9,0.3-2.6,0.3c-2,0-2.6-0.9-2.6-3V31.9L318.6,31.9L318.6,31.9z M191,31.9v-3.7h-4.6v-6.5
	l-4.3,0.7v5.8h-3.3v3.7h3.3v14.4c0,3.2,1.2,5.2,6,5.2c1,0,2.6-0.2,3.6-0.5v-3.2c-1,0.3-1.9,0.3-2.6,0.3c-2,0-2.6-0.9-2.6-3V31.9
	L191,31.9L191,31.9z M270.5,50.9h4.2V36.7c0-3.3,2-4.8,4.6-4.8c0.9,0,1.8,0.1,2.7,0.2V28c-0.8-0.3-1.5-0.3-2.2-0.3
	c-2.3,0-4.2,1.4-5.1,3.3l-0.5-2.8h-3.7V50.9z M120.5,50.9h4.2V36.7c0-3.3,2-4.8,4.6-4.8c0.9,0,1.8,0.1,2.7,0.2V28
	c-0.8-0.3-1.5-0.3-2.2-0.3c-2.4,0-4.2,1.4-5.1,3.3l-0.5-2.8h-3.7V50.9z M132.4,44.7c0,3.2,1.9,6.7,7.7,6.7c3.4,0,5.7-1.3,7.4-3.4
	l0.6,2.9h3.7V35.4c0-6.6-4-7.8-8.7-7.8c-3.6,0-8.2,1-9.3,6.4h4.5c0.6-2,1.9-3.1,4.8-3.1c2.4,0,4.6,0.8,4.6,4.6v1.6h-5
	C136.7,37.1,132.4,39.1,132.4,44.7 M141.5,48.1c-3.3,0-4.6-1.5-4.6-3.8c0-2.7,1.5-4.1,5.5-4.1h5.2v1.6
	C147.6,45.9,145.1,48.1,141.5,48.1"/>
<linearGradient id="XMLID_00000121963950126802589390000006268377461745559184_" gradientUnits="userSpaceOnUse" x1="-115.3161" y1="458.4555" x2="-114.3161" y2="458.4555" gradientTransform="matrix(-48.6452 3.4016 3.4016 48.6452 -7121.0664 -21884.9902)">
	<stop  offset="0" style="stop-color:#47237F"/>
	<stop  offset="0.8736" style="stop-color:#9C7DBF"/>
	<stop  offset="0.8736" style="stop-color:#9C7DBF"/>
	<stop  offset="1" style="stop-color:#8B69B3"/>
</linearGradient>
<path id="XMLID_63_" style="fill:url(#XMLID_00000121963950126802589390000006268377461745559184_);" d="M17.2,4.5
	c-0.2,0.1-0.5,0.3-0.7,0.4C0.6,14.4-4.7,34.7,4.3,50.7c-6.5-12.3,8-36.6,29.5-29.8c5.3,1.7,9.6,5.7,12.4,11.3
	c0.4,0.8,0.6,1.9,0.4,2.6c0.1-0.3,0.2-0.5,0.3-0.8C52.6,16,36.6,2.9,24,2.9C21.5,2.9,19.2,3.4,17.2,4.5"/>
<linearGradient id="XMLID_00000000202669060232700320000002742436444825997216_" gradientUnits="userSpaceOnUse" x1="-111.0347" y1="455.6068" x2="-110.0356" y2="455.6068" gradientTransform="matrix(3.4017 48.6461 48.6461 -3.4017 -21761.5605 6971.0439)">
	<stop  offset="0" style="stop-color:#47237F"/>
	<stop  offset="0.8736" style="stop-color:#9C7DBF"/>
	<stop  offset="0.8736" style="stop-color:#9C7DBF"/>
	<stop  offset="1" style="stop-color:#8B69B3"/>
</linearGradient>
<path id="XMLID_68_" style="fill:url(#XMLID_00000000202669060232700320000002742436444825997216_);" d="M4.3,50.7
	c0.1,0.2,0.3,0.5,0.4,0.7c9.5,15.9,29.8,21.2,45.8,12.2c-12.3,6.5-36.6-8-29.8-29.5c1.7-5.3,5.7-9.6,11.3-12.4
	c0.8-0.4,1.9-0.6,2.6-0.4c-0.3-0.1-0.5-0.2-0.8-0.3c-2.6-0.8-5.1-1.2-7.4-1.2C9.1,19.7-1.4,39.8,4.3,50.7"/>
<linearGradient id="XMLID_00000075858314955398515540000008840588999924156047_" gradientUnits="userSpaceOnUse" x1="-113.8841" y1="451.325" x2="-112.8841" y2="451.325" gradientTransform="matrix(48.6439 -3.4015 -3.4015 -48.6439 7094.5308 21610.4141)">
	<stop  offset="0" style="stop-color:#47237F"/>
	<stop  offset="0.8736" style="stop-color:#9C7DBF"/>
	<stop  offset="0.8736" style="stop-color:#9C7DBF"/>
	<stop  offset="1" style="stop-color:#8B69B3"/>
</linearGradient>
<path id="XMLID_69_" style="fill:url(#XMLID_00000075858314955398515540000008840588999924156047_);" d="M33.8,47.1
	c-5.3-1.7-9.6-5.7-12.4-11.3C21,35,20.8,33.9,21,33.2c-0.1,0.3-0.2,0.5-0.3,0.8c-6.9,21.6,17.4,36,29.8,29.5
	c0.2-0.1,0.5-0.3,0.7-0.4c15.9-9.5,21.2-29.8,12.2-45.8C69.8,29.7,55.4,54,33.8,47.1"/>
<linearGradient id="XMLID_00000105395647357012300480000015122003277735574189_" gradientUnits="userSpaceOnUse" x1="-118.1659" y1="454.1722" x2="-117.1659" y2="454.1722" gradientTransform="matrix(-3.4016 -48.6447 -48.6447 3.4016 21734.5918 -7244.8389)">
	<stop  offset="0" style="stop-color:#47237F"/>
	<stop  offset="0.8736" style="stop-color:#9C7DBF"/>
	<stop  offset="0.8736" style="stop-color:#9C7DBF"/>
	<stop  offset="1" style="stop-color:#8B69B3"/>
</linearGradient>
<path id="XMLID_70_" style="fill:url(#XMLID_00000105395647357012300480000015122003277735574189_);" d="M17.2,4.5
	C29.5-2,53.8,12.5,47,34c-1.7,5.3-5.7,9.6-11.3,12.4c-0.8,0.4-1.9,0.6-2.6,0.4c0.3,0.1,0.5,0.2,0.8,0.3c21.6,6.9,36-17.4,29.5-29.8
	c-0.1-0.2-0.3-0.5-0.4-0.7C56.7,6,45.4,0,33.8,0C28.1,0.1,22.4,1.5,17.2,4.5"/>
</svg>
