<svg xmlns="http://www.w3.org/2000/svg" height="374.853" width="2371.373" xml:space="preserve"><path style="fill:#3a6abc;fill-opacity:1;fill-rule:nonzero;stroke:none" d="M6528.98 566.578c-196.66-105.996-409.6-57.769-498.03 101.383-97.15 174.848-30.04 385.319 161.69 504.619 87.04 54.16 182.24 89.93 279.69 120.16 74.74 23.19 148.59 49.98 224.45 68.53 63.25 15.48 194.17 47.75 194.17 47.75l.84-182.34c0-358.59-102.33-519.7-362.81-660.102zM7622.1 672.699c-7.16 364.391-3.54 728.971-6.52 1093.461-.67 82.09-5.55 164.65-15.9 246.05-48.98 385.09-267.24 640.74-643.52 735.98-358.24 90.67-715.75 74.88-1064.02-53.14-225.63-82.94-413.13-218.99-555.68-416.89-26.94-37.39-31.16-43.04-51.16-83.04l538.53-312.23c11.85 11.84 1.47 2.23 49.73 52.3 204.18 211.86 388.63 341.45 674.54 302.39 220.19-30.08 318.23-146.34 337.88-368.54 7.32-82.73-22.1-128.38-96.23-148.28-132.31-35.54-264.9-70.46-398.5-100.6-278.66-62.87-563.72-106.03-810.97-263.88-272.17-173.77-365.94-427.46-321-738.901 45.5-315.18 230.46-509 535.27-582.66 428.48-103.547 914.12 84.922 1103.31 497.203 4.41 9.609 19.28-253.121 63.42-365.184C6979.59 120.27 6992.24 59 7054.14 58c229.54-3.691 459.19-1.469 702.35-1.469C7642.26 259.13 7626.15 466.18 7622.1 672.7M11919 566.578c-196.7-105.996-409.6-57.769-498 101.383-97.2 174.848-30.1 385.319 161.6 504.619 87.1 54.16 182.3 89.93 279.7 120.16 74.8 23.19 148.6 49.98 224.5 68.53 63.2 15.48 194.2 47.75 194.2 47.75l.8-182.34c0-358.59-102.3-519.7-362.8-660.102zm1093.1 106.121c-7.2 364.391-3.6 728.971-6.5 1093.461-.7 82.09-5.6 164.65-15.9 246.05-49 385.09-267.3 640.74-643.5 735.98-358.3 90.67-715.8 74.88-1064.1-53.14-225.6-82.94-413.1-218.99-555.6-416.89-27-37.39-31.2-43.04-51.2-83.04l538.5-312.23c11.9 11.84 1.5 2.23 49.8 52.3 204.1 211.86 388.6 341.45 674.5 302.39 220.2-30.08 318.2-146.34 337.9-368.54 7.3-82.73-22.1-128.38-96.2-148.28-132.4-35.54-265-70.46-398.6-100.6-278.6-62.87-563.7-106.03-810.9-263.88-272.2-173.77-366-427.46-321-738.901 45.5-315.18 230.4-509 535.3-582.66 428.4-103.547 914.1 84.922 1103.3 497.203 4.4 9.609 19.2-253.121 63.4-365.184C12369.6 120.27 12382.2 59 12444.1 58c229.6-3.691 459.2-1.469 702.4-1.469-114.2 202.598-130.4 409.649-134.4 616.168M8838.09 628.141 10275.3 2185.12v560h-2150v-560h1420L8108.09 628.141l-2.79-3.02v-570h2200v573.02H8838.09" transform="matrix(.13333 0 0 -.13333 0 374.853)"/><path style="fill:#2b3486;fill-opacity:1;fill-rule:nonzero;stroke:none" d="M13275.3 2528.17v-136.21c.3 45.4.3 90.81 0 136.21" transform="matrix(.13333 0 0 -.13333 0 374.853)"/><path style="fill:#3a6abc;fill-opacity:1;fill-rule:nonzero;stroke:none" d="M15506 2685.86c.1 8.99-.1 17.24-.7 24.82v-70.15c.2 15.11.4 30.22.7 45.33" transform="matrix(.13333 0 0 -.13333 0 374.853)"/><path style="fill:#2b3486;fill-opacity:1;fill-rule:nonzero;stroke:none" d="M15505.3 2062.43v578.1c-2.8-192.68-3.8-385.47 0-578.1" transform="matrix(.13333 0 0 -.13333 0 374.853)"/><path style="fill:#3a6abc;fill-opacity:1;fill-rule:nonzero;stroke:none" d="M15380.1 2775.12c-32.2-1.15-69.4-5.62-94.8-10-4.5-.78 0 0-70-12.1-121.8-21.04-227.6-90.07-323.1-181.57-161.1-154.3-248.6-349.49-307.7-559.33-27-95.55-46.1-193.32-68.7-290.08-.2 10.16-.3 20.27-.5 30.41v992.67h-1240V2528.17c.3-45.4.3-90.81 0-136.21v-236.84h570V55.121h740V1161.25c5.1 120.85 22.7 240.08 62 356.26 66 194.93 200.2 312.03 398.2 361.44 83 17.69 129.8 26.17 189.8 26.17h270v157.31c-3.8 192.63-2.8 385.42 0 578.1v134.59s-93.9 1.11-125.2 0M17466.6 1418.18c-133.1 93.17-283.3 149.82-434.6 204.31-147.2 53.04-297.8 98.45-434.5 177.08-130.4 75.05-186.7 168.58-166.6 270.14 21 105.87 115.9 183.34 260.7 201.47 229.7 28.75 405-64.01 553.8-237.79 49.9-58.27 39.9-48.27 39.9-48.27l444.8 347.44c-4.8 32.56-20.5 63.77-56.7 102.23-358.6 381.5-1094.9 482.92-1581.5 211.38-253.3-141.38-410.4-348.59-415.7-649.32-5.3-306.8 148.5-517.73 407-664.34 137.3-77.88 287.2-124.08 434.2-177.95 139.6-51.13 283.3-95.36 401.6-190.412 164.7-132.418 132.3-329.289-66.5-402.589-43.4-15.989-91.1-24.797-137.4-27.457-267.9-15.391-530.1 141.097-689.8 351.019l-450-360c40-60 39.9-60.301 83.1-108.301 275.1-305.371 632.4-403.12 1009-416.82 290 6.71 555.6 45.2 789.3 202.941 434.2 293.059 438.7 914.959 9.9 1215.239" transform="matrix(.13333 0 0 -.13333 0 374.853)"/><path style="fill:#2b3486;fill-opacity:1;fill-rule:nonzero;stroke:none" d="M4783.39 1845.12c-1.84 176.63-16.54 351.75-81.68 519.18-99.77 256.47-281.59 407.01-559.03 438.45-414.38 46.96-757.21-149.5-947.85-546.54-27.67-57.63-54.09-115.85-94.57-202.74-24.63 100.07-38.39 167.65-57.95 233.52-107.55 362.23-400.7 555.4-776.85 520.36-385.04-35.89-626.12-254.28-779.81-589.73-2.09-4.58-4.24-9.1-6.31-13.72-21.82-48.85-27.54-105.93-81.32-159.14-.45 1.03-.87 2.01-1.32 3.04-40.48 92.04-72.66 174.88-112.66 253.69-48.87 96.27-106.2 181.28-173.76 251.97-56.75 59.36-120.772 108.54-193.053 145.76-26.368 13.58-53.793 25.61-82.422 35.9-46.188 16.61-95.43 28.75-147.86 36.18-24.949 3.53-50.547 6.1-76.98 7.43-170.43 8.59-437.461 1.57-609.965 4.32v-729.03H686.945V330.051s.27-174.492 0-170.102V55.121H1435.3V490.79c-.94 195.481-.52 390.992 0 586.491.27 101.29.56 202.58.7 303.87.26 178.6 27.94 351.58 117.12 509.65 87.71 155.44 216.61 256.34 395.35 285.24 210.71 34.08 351.99-61.94 397.37-270.21 1.63-7.47 3.16-15.25 4.64-23.17 13.36-68.56 20.09-137.94 22.34-207.87 1.74-35.29 2.54-69.29 2.48-99.67V55.121h210.86c102.03 2.23 204.15 3.117 306.01 0h233.13V1502.25c14.32 153.73 58.9 299.37 145.57 432.62 98.26 151.09 238.56 235.6 419.37 245.17 165.53 8.76 266.07-67.53 310.03-227.56 14.39-52.36 21.43-105.46 25.03-158.85 2.96-44.08 3.62-88.35 3.74-132.64.83-297.76-3.49-595.6 1.67-893.271 7.05-406.278 226.21-670.73 603.18-739.13 6.96-1.257 35.02-2.929 41.41-3.468 19.41-1.633 77.9 0 77.9 0h32.1V1805.12l-1.91 40" transform="matrix(.13333 0 0 -.13333 0 374.853)"/></svg>