<?xml version="1.0" standalone="no"?>
<!DOCTYPE svg PUBLIC "-//W3C//DTD SVG 20010904//EN"
 "http://www.w3.org/TR/2001/REC-SVG-20010904/DTD/svg10.dtd">
<svg version="1.0" xmlns="http://www.w3.org/2000/svg"
 width="700.000000pt" height="700.000000pt" viewBox="0 0 700.000000 700.000000"
 preserveAspectRatio="xMidYMid meet">
<metadata>
Created by potrace 1.14, written by Peter Selinger 2001-2017
</metadata>
<g transform="translate(0.000000,700.000000) scale(0.100000,-0.100000)"
fill="#000000" stroke="none">
<path d="M3 5153 c3 -2025 -1 -1888 63 -2207 91 -461 290 -903 580 -1289 107
-143 279 -334 388 -431 l77 -69 -98 131 c-336 448 -542 956 -620 1532 -26 191
-26 805 0 990 92 659 342 1220 760 1705 555 644 1334 1037 2191 1106 193 15
687 6 846 -15 574 -79 1076 -283 1527 -623 l127 -95 -64 72 c-82 92 -238 237
-360 335 -406 325 -886 547 -1390 644 -298 58 -176 55 -2183 58 l-1848 4 4
-1848z"/>
<path d="M2348 5575 c-14 -8 -31 -29 -37 -47 -14 -44 -101 -476 -101 -504 0
-11 12 -33 26 -48 l27 -26 553 0 c439 0 554 -3 554 -13 0 -7 -153 -777 -340
-1712 -187 -935 -340 -1713 -340 -1730 1 -34 15 -56 47 -73 15 -8 112 -12 317
-12 l294 0 30 25 c29 24 30 32 378 1770 l349 1745 572 0 572 0 25 23 c22 19
31 51 76 270 27 137 50 257 50 268 0 11 -13 34 -29 50 l-29 29 -1484 0 c-1276
-1 -1487 -3 -1510 -15z m2851 -187 c0 -13 -13 -77 -27 -143 l-27 -120 -576 -5
c-535 -5 -578 -6 -597 -23 -16 -14 -80 -320 -368 -1762 l-349 -1745 -188 0
c-175 0 -188 1 -183 18 24 83 686 3437 681 3453 -4 11 -16 29 -28 39 -20 19
-38 20 -575 20 l-555 0 6 43 c3 23 16 88 28 145 l22 102 1368 0 1369 0 -1 -22z"/>
<path d="M1623 4648 c-159 -44 -320 -147 -394 -255 -29 -41 -31 -49 -24 -101
8 -75 47 -154 96 -196 33 -28 147 -96 160 -96 2 0 4 33 5 73 1 92 30 162 90
217 87 80 208 113 419 112 204 0 409 -39 654 -126 41 -14 76 -26 78 -26 2 0 2
73 1 162 l-3 162 -105 27 c-154 40 -150 41 -150 -31 0 -33 -3 -60 -6 -60 -3 0
-45 14 -92 31 -278 98 -590 144 -729 107z"/>
<path d="M5060 4580 c-221 -60 -413 -171 -556 -321 -116 -122 -184 -302 -203
-541 -30 -359 83 -661 321 -865 40 -34 73 -61 74 -60 1 1 -18 43 -42 92 -130
267 -135 642 -14 927 87 205 266 389 453 467 120 50 219 64 386 58 199 -8 373
-48 572 -132 l79 -33 0 173 0 173 -122 30 -123 29 -3 -73 c-2 -41 -5 -74 -7
-74 -3 0 -42 15 -87 34 -286 116 -563 161 -728 116z"/>
<path d="M1170 3726 c0 -15 51 -85 91 -125 63 -63 197 -148 319 -202 58 -26
222 -91 365 -144 143 -53 273 -104 288 -112 16 -8 31 -12 34 -9 12 12 -22 79
-63 125 -70 78 -183 131 -640 300 -128 47 -273 110 -386 169 -5 2 -8 1 -8 -2z"/>
<path d="M2605 3384 c40 -96 48 -143 49 -259 0 -157 -30 -267 -103 -375 -10
-14 -25 -46 -35 -72 -35 -96 -138 -183 -273 -231 -79 -29 -205 -47 -508 -73
-94 -8 -309 11 -483 41 -79 14 -147 25 -152 25 -6 0 -10 -40 -10 -94 l0 -94
43 -11 c172 -46 439 -99 591 -116 92 -11 338 -8 423 5 403 59 674 262 749 560
21 81 23 246 5 320 -23 94 -79 196 -145 264 -71 73 -164 141 -151 110z"/>
<path d="M4426 2495 c185 -222 446 -369 749 -421 153 -26 414 -24 580 5 116
20 313 71 388 100 l27 11 0 150 c0 82 -4 150 -8 150 -5 0 -42 -11 -83 -25
-127 -44 -249 -74 -379 -94 -69 -11 -168 -28 -220 -37 -133 -25 -449 -25 -575
-1 -196 39 -339 95 -490 193 -28 18 -27 15 11 -31z"/>
</g>
</svg>
